<svg width="263" height="123" viewBox="0 0 263 123" fill="none" xmlns="http://www.w3.org/2000/svg">
<rect width="263" height="123" fill="white"/>
<g filter="url(#filter0_d_71_3)">
<path d="M65.6572 40.3581L71.0784 57.0168H88.6217L74.4288 67.3124L65.6572 73.6754L51.4644 83.9711L56.8856 67.3124L42.6927 57.0168H60.236L65.6572 40.3581Z" fill="#FFA500" fill-opacity="0.8" shape-rendering="crispEdges"/>
</g>
<path d="M243 58.0231C243 62.4414 246.582 66.0231 251 66.0231C255.418 66.0231 259 62.4414 259 58.0231C259 53.6049 255.418 50.0231 251 50.0231C246.582 50.0231 243 53.6049 243 58.0231ZM122.309 110.5L130.97 119.16L139.63 110.5L130.97 101.84L122.309 110.5ZM249.5 58.0231C249.5 64.772 246.378 71.3199 240.489 77.4065C234.594 83.5003 225.991 89.0567 215.243 93.7555C193.752 103.151 163.958 109 130.97 109V112C164.272 112 194.493 106.102 216.445 96.5043C227.418 91.7066 236.393 85.9552 242.646 79.4925C248.905 73.0226 252.5 65.7653 252.5 58.0231H249.5Z" fill="#FFA500"/>
<path d="M10 62.4769C10 66.8952 13.5817 70.4769 18 70.4769C22.4183 70.4769 26 66.8952 26 62.4769C26 58.0586 22.4183 54.4769 18 54.4769C13.5817 54.4769 10 58.0586 10 62.4769ZM146.691 10L138.03 1.33975L129.37 10L138.03 18.6603L146.691 10ZM19.5 62.4769C19.5 55.728 22.6222 49.1801 28.5106 43.0935C34.4061 36.9997 43.0094 31.4433 53.7569 26.7445C75.2476 17.3489 105.042 11.5 138.03 11.5V8.5C104.728 8.5 74.5069 14.3985 52.5552 23.9957C41.5815 28.7934 32.6068 34.5449 26.3545 41.0075C20.0953 47.4774 16.5 54.7347 16.5 62.4769H19.5Z" fill="#003366"/>
<g filter="url(#filter1_d_71_3)">
<path d="M49.582 40.3581L55.0032 57.0168H72.5465L58.3537 67.3124L49.582 73.6754L35.3892 83.9711L40.8104 67.3124L26.6176 57.0168H44.1608L49.582 40.3581Z" fill="#FFA500" fill-opacity="0.2" shape-rendering="crispEdges"/>
</g>
<path d="M101.735 79.323V56.0502H115.78V58.5502H104.553V66.4139H115.053V68.9139H104.553V76.823H115.962V79.323H101.735ZM123.178 68.823V79.323H120.496V61.8684H123.087V64.5957H123.314C123.723 63.7093 124.344 62.9972 125.178 62.4593C126.011 61.9139 127.087 61.6411 128.405 61.6411C129.587 61.6411 130.621 61.8836 131.507 62.3684C132.394 62.8457 133.083 63.573 133.575 64.5502C134.068 65.5199 134.314 66.7472 134.314 68.2321V79.323H131.632V68.4139C131.632 67.0427 131.276 65.9745 130.564 65.2093C129.852 64.4366 128.875 64.0502 127.632 64.0502C126.776 64.0502 126.011 64.2358 125.337 64.6071C124.67 64.9783 124.144 65.5199 123.757 66.2321C123.371 66.9442 123.178 67.8078 123.178 68.823ZM152.862 61.8684L146.408 79.323H143.681L137.226 61.8684H140.135L144.953 75.7775H145.135L149.953 61.8684H152.862ZM156.402 79.323V61.8684H159.084V79.323H156.402ZM157.766 58.9593C157.243 58.9593 156.792 58.7813 156.413 58.4252C156.042 58.0692 155.857 57.6411 155.857 57.1411C155.857 56.6411 156.042 56.2131 156.413 55.8571C156.792 55.501 157.243 55.323 157.766 55.323C158.288 55.323 158.735 55.501 159.107 55.8571C159.485 56.2131 159.675 56.6411 159.675 57.1411C159.675 57.6411 159.485 58.0692 159.107 58.4252C158.735 58.7813 158.288 58.9593 157.766 58.9593ZM171.087 79.6866C169.511 79.6866 168.128 79.3116 166.939 78.5616C165.757 77.8116 164.833 76.7624 164.166 75.4139C163.507 74.0654 163.178 72.4896 163.178 70.6866C163.178 68.8684 163.507 67.2813 164.166 65.9252C164.833 64.5692 165.757 63.5161 166.939 62.7661C168.128 62.0161 169.511 61.6411 171.087 61.6411C172.663 61.6411 174.041 62.0161 175.223 62.7661C176.413 63.5161 177.337 64.5692 177.996 65.9252C178.663 67.2813 178.996 68.8684 178.996 70.6866C178.996 72.4896 178.663 74.0654 177.996 75.4139C177.337 76.7624 176.413 77.8116 175.223 78.5616C174.041 79.3116 172.663 79.6866 171.087 79.6866ZM171.087 77.2775C172.284 77.2775 173.269 76.9707 174.041 76.3571C174.814 75.7434 175.386 74.9366 175.757 73.9366C176.128 72.9366 176.314 71.8533 176.314 70.6866C176.314 69.5199 176.128 68.4328 175.757 67.4252C175.386 66.4177 174.814 65.6033 174.041 64.9821C173.269 64.3608 172.284 64.0502 171.087 64.0502C169.89 64.0502 168.905 64.3608 168.132 64.9821C167.36 65.6033 166.788 66.4177 166.416 67.4252C166.045 68.4328 165.86 69.5199 165.86 70.6866C165.86 71.8533 166.045 72.9366 166.416 73.9366C166.788 74.9366 167.36 75.7434 168.132 76.3571C168.905 76.9707 169.89 77.2775 171.087 77.2775ZM199.362 63.323C199.112 62.5578 198.783 61.8722 198.374 61.2661C197.972 60.6525 197.491 60.1298 196.931 59.698C196.377 59.2661 195.749 58.9366 195.044 58.7093C194.34 58.4821 193.567 58.3684 192.726 58.3684C191.347 58.3684 190.093 58.7245 188.965 59.4366C187.836 60.1487 186.938 61.198 186.271 62.5843C185.605 63.9707 185.271 65.6715 185.271 67.6866C185.271 69.7018 185.609 71.4025 186.283 72.7889C186.957 74.1752 187.87 75.2245 189.021 75.9366C190.173 76.6487 191.468 77.0048 192.908 77.0048C194.241 77.0048 195.415 76.7207 196.431 76.1525C197.453 75.5768 198.249 74.7661 198.817 73.7207C199.393 72.6677 199.681 71.429 199.681 70.0048L200.544 70.1866H193.544V67.6866H202.408V70.1866C202.408 72.1033 201.999 73.7699 201.181 75.1866C200.37 76.6033 199.249 77.7018 197.817 78.4821C196.393 79.2548 194.756 79.6411 192.908 79.6411C190.847 79.6411 189.037 79.1563 187.476 78.1866C185.923 77.2169 184.711 75.8381 183.84 74.0502C182.976 72.2624 182.544 70.1411 182.544 67.6866C182.544 65.8457 182.79 64.1904 183.283 62.7207C183.783 61.2434 184.487 59.9858 185.396 58.948C186.306 57.9101 187.381 57.1146 188.624 56.5616C189.866 56.0086 191.234 55.7321 192.726 55.7321C193.953 55.7321 195.097 55.9177 196.158 56.2889C197.226 56.6525 198.177 57.1715 199.01 57.8457C199.851 58.5124 200.552 59.3116 201.112 60.2434C201.673 61.1677 202.059 62.1942 202.271 63.323H199.362ZM213.962 79.6866C212.386 79.6866 211.003 79.3116 209.814 78.5616C208.632 77.8116 207.708 76.7624 207.041 75.4139C206.382 74.0654 206.053 72.4896 206.053 70.6866C206.053 68.8684 206.382 67.2813 207.041 65.9252C207.708 64.5692 208.632 63.5161 209.814 62.7661C211.003 62.0161 212.386 61.6411 213.962 61.6411C215.538 61.6411 216.916 62.0161 218.098 62.7661C219.288 63.5161 220.212 64.5692 220.871 65.9252C221.538 67.2813 221.871 68.8684 221.871 70.6866C221.871 72.4896 221.538 74.0654 220.871 75.4139C220.212 76.7624 219.288 77.8116 218.098 78.5616C216.916 79.3116 215.538 79.6866 213.962 79.6866ZM213.962 77.2775C215.159 77.2775 216.144 76.9707 216.916 76.3571C217.689 75.7434 218.261 74.9366 218.632 73.9366C219.003 72.9366 219.189 71.8533 219.189 70.6866C219.189 69.5199 219.003 68.4328 218.632 67.4252C218.261 66.4177 217.689 65.6033 216.916 64.9821C216.144 64.3608 215.159 64.0502 213.962 64.0502C212.765 64.0502 211.78 64.3608 211.007 64.9821C210.235 65.6033 209.663 66.4177 209.291 67.4252C208.92 68.4328 208.735 69.5199 208.735 70.6866C208.735 71.8533 208.92 72.9366 209.291 73.9366C209.663 74.9366 210.235 75.7434 211.007 76.3571C211.78 76.9707 212.765 77.2775 213.962 77.2775Z" fill="#003366"/>
<g filter="url(#filter2_d_71_3)">
<path d="M68.8722 40.3581L74.2933 57.0168H91.8366L77.6438 67.3124L83.065 83.9711L68.8722 73.6754L54.6794 83.9711L60.1005 67.3124L45.9077 57.0168H63.451L68.8722 40.3581Z" fill="#FFA500"/>
</g>
<g filter="url(#filter3_d_71_3)">
<path d="M60.6049 40.3581L66.0261 57.0168H83.5693L69.3765 67.3124L66.0261 70.0149L60.6049 73.6754L46.4121 83.9711L51.8333 67.3124L37.6404 57.0168H55.1837L60.6049 40.3581Z" fill="#FFA500" fill-opacity="0.6" shape-rendering="crispEdges"/>
</g>
<g filter="url(#filter4_d_71_3)">
<path d="M55.0934 40.3581L60.5146 57.0168H78.0579L63.8651 67.3124L55.0934 73.6754L40.9006 83.9711L46.3218 67.3124L32.129 57.0168H49.6722L55.0934 40.3581Z" fill="#FFA500" fill-opacity="0.4" shape-rendering="crispEdges"/>
</g>
<defs>
<filter id="filter0_d_71_3" x="38.6927" y="37.3581" width="53.9289" height="51.613" filterUnits="userSpaceOnUse" color-interpolation-filters="sRGB">
<feFlood flood-opacity="0" result="BackgroundImageFix"/>
<feColorMatrix in="SourceAlpha" type="matrix" values="0 0 0 0 0 0 0 0 0 0 0 0 0 0 0 0 0 0 127 0" result="hardAlpha"/>
<feOffset dy="1"/>
<feGaussianBlur stdDeviation="2"/>
<feComposite in2="hardAlpha" operator="out"/>
<feColorMatrix type="matrix" values="0 0 0 0 0.0470588 0 0 0 0 0.0470588 0 0 0 0 0.0509804 0 0 0 0.05 0"/>
<feBlend mode="normal" in2="BackgroundImageFix" result="effect1_dropShadow_71_3"/>
<feBlend mode="normal" in="SourceGraphic" in2="effect1_dropShadow_71_3" result="shape"/>
</filter>
<filter id="filter1_d_71_3" x="22.6176" y="37.3581" width="53.9289" height="51.613" filterUnits="userSpaceOnUse" color-interpolation-filters="sRGB">
<feFlood flood-opacity="0" result="BackgroundImageFix"/>
<feColorMatrix in="SourceAlpha" type="matrix" values="0 0 0 0 0 0 0 0 0 0 0 0 0 0 0 0 0 0 127 0" result="hardAlpha"/>
<feOffset dy="1"/>
<feGaussianBlur stdDeviation="2"/>
<feComposite in2="hardAlpha" operator="out"/>
<feColorMatrix type="matrix" values="0 0 0 0 0.0470588 0 0 0 0 0.0470588 0 0 0 0 0.0509804 0 0 0 0.05 0"/>
<feBlend mode="normal" in2="BackgroundImageFix" result="effect1_dropShadow_71_3"/>
<feBlend mode="normal" in="SourceGraphic" in2="effect1_dropShadow_71_3" result="shape"/>
</filter>
<filter id="filter2_d_71_3" x="41.9077" y="37.3581" width="53.9289" height="51.613" filterUnits="userSpaceOnUse" color-interpolation-filters="sRGB">
<feFlood flood-opacity="0" result="BackgroundImageFix"/>
<feColorMatrix in="SourceAlpha" type="matrix" values="0 0 0 0 0 0 0 0 0 0 0 0 0 0 0 0 0 0 127 0" result="hardAlpha"/>
<feOffset dy="1"/>
<feGaussianBlur stdDeviation="2"/>
<feComposite in2="hardAlpha" operator="out"/>
<feColorMatrix type="matrix" values="0 0 0 0 0.0470588 0 0 0 0 0.0470588 0 0 0 0 0.0509804 0 0 0 0.05 0"/>
<feBlend mode="normal" in2="BackgroundImageFix" result="effect1_dropShadow_71_3"/>
<feBlend mode="normal" in="SourceGraphic" in2="effect1_dropShadow_71_3" result="shape"/>
</filter>
<filter id="filter3_d_71_3" x="33.6404" y="37.3581" width="53.9289" height="51.613" filterUnits="userSpaceOnUse" color-interpolation-filters="sRGB">
<feFlood flood-opacity="0" result="BackgroundImageFix"/>
<feColorMatrix in="SourceAlpha" type="matrix" values="0 0 0 0 0 0 0 0 0 0 0 0 0 0 0 0 0 0 127 0" result="hardAlpha"/>
<feOffset dy="1"/>
<feGaussianBlur stdDeviation="2"/>
<feComposite in2="hardAlpha" operator="out"/>
<feColorMatrix type="matrix" values="0 0 0 0 0.0470588 0 0 0 0 0.0470588 0 0 0 0 0.0509804 0 0 0 0.05 0"/>
<feBlend mode="normal" in2="BackgroundImageFix" result="effect1_dropShadow_71_3"/>
<feBlend mode="normal" in="SourceGraphic" in2="effect1_dropShadow_71_3" result="shape"/>
</filter>
<filter id="filter4_d_71_3" x="28.129" y="37.3581" width="53.9289" height="51.613" filterUnits="userSpaceOnUse" color-interpolation-filters="sRGB">
<feFlood flood-opacity="0" result="BackgroundImageFix"/>
<feColorMatrix in="SourceAlpha" type="matrix" values="0 0 0 0 0 0 0 0 0 0 0 0 0 0 0 0 0 0 127 0" result="hardAlpha"/>
<feOffset dy="1"/>
<feGaussianBlur stdDeviation="2"/>
<feComposite in2="hardAlpha" operator="out"/>
<feColorMatrix type="matrix" values="0 0 0 0 0.0470588 0 0 0 0 0.0470588 0 0 0 0 0.0509804 0 0 0 0.05 0"/>
<feBlend mode="normal" in2="BackgroundImageFix" result="effect1_dropShadow_71_3"/>
<feBlend mode="normal" in="SourceGraphic" in2="effect1_dropShadow_71_3" result="shape"/>
</filter>
</defs>
</svg>
